<?xml version="1.0" encoding="utf-8"?>
<?xml-stylesheet type="text/css" href="ellip-arc-1.css" charset="utf-8"?>

<!DOCTYPE svg PUBLIC "-//W3C//DTD SVG 20010904//EN" "http://www.w3.org/TR/2001/REC-SVG-20010904/DTD/svg10.dtd">

<svg id="svg" width="1500" height="1000" xml:lang="fr"
xmlns="http://www.w3.org/2000/svg"
xmlns:xlink="http://www.w3.org/1999/xlink">

<!-- GRILLE -->
<rect x="0" y="0" width="1500" height="1000" style="fill:gainsboro;stroke:black;stroke-width:6px;"/>
<path d="M 0,100 L 1500,100 M 0,200 L 1500,200 M 0,300 L 1500,300 M 0,400 L 1500,400 M 0,500 L 1500,500, M 0,600 L 1500,600 M 0,700 
L 1500,700 M 0,800 L 1500,800 M 0,900 L 1500,900" style="stroke:black; stroke-width:3px;"/>
<path d="M 0,50 L 1500,50 M 0,150 L 1500,150 M 0,250 L 1500,250 M 0,350 L 1500,350 M 0,450 L 1500,450 M 0,550 L 1500,550 M 0,650 
L 1500,650 M 0,750 L 1500,750 M 0,850 L 1500,850 M 0,950 L 1500,950" style="stroke:black; stroke-width:2px;"/>
<path d="M 0,25 L 1500,25 M 0,75 L 1500,75 M 0,125 L 1500,125 M 0,175 L 1500,175 M 0,225 L 1500,225 M 0,275 L 1500,275 
M 0,325 L 1500,325 M 0,375 L 1500,375 M 0,425 L 1500,425 M 0,475 L 1500,475 M 0,525 L 1500,525 M 0,575 L 1500,575 
M 0,625 L 1500,625 M 0,675 L 1500,675 M 0,725 L 1500,725 M 0,775 L 1500,775 M 0,825 L 1500,825 M 0,875 L 1500,875 
M 0,925 L 1500,925 M 0,975 L 1500,975 " style="stroke:black; stroke-width:1px;"/>

<path d="M 100,0 L 100,1000 M 200,0 L 200,1000 M 300,0 L 300,1000 M 400,0 L 400,1000 M 500,0 L 500,1000 M 600,0 L 600,1000 M 700,0 
L 700,1000 M 800,0 L 800,1000 M 900,0 L 900,1000 M 1000,0 L 1000,1000 M 1100,0 L 1100,1000 M 1200,0 L 1200,1000 M 1300,0 
L 1300,1000 M 1400,0 L 1400,1000" style="stroke:black; stroke-width:3px;"/>
<path d="M 50,0 L 50,1000 M 150,0 L 150,1000 M 250,0 L 250,1000 M 350,0 L 350,1000 M 450,0 L 450,1000 M 550,0 L 550,1000 M 650,0 
L 650,1000 M 750,0 L 750,1000 M 850,0 L 850,1000 M 950,0 L 950,1000 M 1050,0 L 1050,1000 M 1150,0 L 1150,1000 M 1250,0 L 1250,1000 
M 1350,0 L 1350,1000 M 1450,0 L 1450,1000" style="stroke:black; stroke-width:2px;"/>
<path d="M 25,0 L 25,1000 M 75,0 L 75,1000 M 125,0 L 125,1000 M 175,0 L 175,1000 M 225,0 L 225,1000 M 275,0 L 275,1000 
M 325,0 L 325,1000 M 375,0 L 375,1000 M 425,0 L 425,1000 M 475,0 L 475,1000 M 525,0 L 525,1000 M 575,0 L 575,1000 
M 625,0 L 625,1000 M 675,0 L 675,1000 M 725,0 L 725,1000 M 775,0 L 775,1000 M 825,0 L 825,1000 M 875,0 L 875,1000 
M 925,0 L 925,1000 M 975,0 L 975,1000 M 1025,0 L 1025,1000 M 1075,0 L 1075,1000 M 1125,0 L 1125,1000 M 1175,0 L 1175,1000 
M 1225,0 L 1225,1000 M 1275,0 L 1275,1000 M 1325,0 L 1325,1000 M 1375,0 L 1375,1000 M 1425,0 L 1425,1000 M 1475,0 L 1475,1000" style="stroke:black; stroke-width:1px;"/>

<circle cx="50" cy="50" r="5" style="fill:black;"/>
<circle cx="150" cy="50" r="5" style="fill:black;"/>
<circle cx="250" cy="50" r="5" style="fill:black;"/>
<circle cx="350" cy="50" r="5" style="fill:black;"/>
<circle cx="450" cy="50" r="5" style="fill:black;"/>
<circle cx="550" cy="50" r="5" style="fill:black;"/>
<circle cx="650" cy="50" r="5" style="fill:black;"/>
<circle cx="750" cy="50" r="5" style="fill:black;"/>
<circle cx="850" cy="50" r="5" style="fill:black;"/>
<circle cx="950" cy="50" r="5" style="fill:black;"/>
<circle cx="1050" cy="50" r="5" style="fill:black;"/>
<circle cx="1150" cy="50" r="5" style="fill:black;"/>
<circle cx="1250" cy="50" r="5" style="fill:black;"/>
<circle cx="1350" cy="50" r="5" style="fill:black;"/>
<circle cx="1450" cy="50" r="5" style="fill:black;"/>
<circle cx="50" cy="150" r="5" style="fill:black;"/>
<circle cx="150" cy="150" r="5" style="fill:black;"/>
<circle cx="250" cy="150" r="5" style="fill:black;"/>
<circle cx="350" cy="150" r="5" style="fill:black;"/>
<circle cx="450" cy="150" r="5" style="fill:black;"/>
<circle cx="550" cy="150" r="5" style="fill:black;"/>
<circle cx="650" cy="150" r="5" style="fill:black;"/>
<circle cx="750" cy="150" r="5" style="fill:black;"/>
<circle cx="850" cy="150" r="5" style="fill:black;"/>
<circle cx="950" cy="150" r="5" style="fill:black;"/>
<circle cx="1050" cy="150" r="5" style="fill:black;"/>
<circle cx="1150" cy="150" r="5" style="fill:black;"/>
<circle cx="1250" cy="150" r="5" style="fill:black;"/>
<circle cx="1350" cy="150" r="5" style="fill:black;"/>
<circle cx="1450" cy="150" r="5" style="fill:black;"/>
<circle cx="50" cy="250" r="5" style="fill:black;"/>
<circle cx="150" cy="250" r="5" style="fill:black;"/>
<circle cx="250" cy="250" r="5" style="fill:black;"/>
<circle cx="350" cy="250" r="5" style="fill:black;"/>
<circle cx="450" cy="250" r="5" style="fill:black;"/>
<circle cx="550" cy="250" r="5" style="fill:black;"/>
<circle cx="650" cy="250" r="5" style="fill:black;"/>
<circle cx="750" cy="250" r="5" style="fill:black;"/>
<circle cx="850" cy="250" r="5" style="fill:black;"/>
<circle cx="950" cy="250" r="5" style="fill:black;"/>
<circle cx="1050" cy="250" r="5" style="fill:black;"/>
<circle cx="1150" cy="250" r="5" style="fill:black;"/>
<circle cx="1250" cy="250" r="5" style="fill:black;"/>
<circle cx="1350" cy="250" r="5" style="fill:black;"/>
<circle cx="1450" cy="250" r="5" style="fill:black;"/>
<circle cx="50" cy="350" r="5" style="fill:black;"/>
<circle cx="150" cy="350" r="5" style="fill:black;"/>
<circle cx="250" cy="350" r="5" style="fill:black;"/>
<circle cx="350" cy="350" r="5" style="fill:black;"/>
<circle cx="450" cy="350" r="5" style="fill:black;"/>
<circle cx="550" cy="350" r="5" style="fill:black;"/>
<circle cx="650" cy="350" r="5" style="fill:black;"/>
<circle cx="750" cy="350" r="5" style="fill:black;"/>
<circle cx="850" cy="350" r="5" style="fill:black;"/>
<circle cx="950" cy="350" r="5" style="fill:black;"/>
<circle cx="1050" cy="350" r="5" style="fill:black;"/>
<circle cx="1150" cy="350" r="5" style="fill:black;"/>
<circle cx="1250" cy="350" r="5" style="fill:black;"/>
<circle cx="1350" cy="350" r="5" style="fill:black;"/>
<circle cx="1450" cy="350" r="5" style="fill:black;"/>
<circle cx="50" cy="450" r="5" style="fill:black;"/>
<circle cx="150" cy="450" r="5" style="fill:black;"/>
<circle cx="250" cy="450" r="5" style="fill:black;"/>
<circle cx="350" cy="450" r="5" style="fill:black;"/>
<circle cx="450" cy="450" r="5" style="fill:black;"/>
<circle cx="550" cy="450" r="5" style="fill:black;"/>
<circle cx="650" cy="450" r="5" style="fill:black;"/>
<circle cx="750" cy="450" r="5" style="fill:black;"/>
<circle cx="850" cy="450" r="5" style="fill:black;"/>
<circle cx="950" cy="450" r="5" style="fill:black;"/>
<circle cx="1050" cy="450" r="5" style="fill:black;"/>
<circle cx="1150" cy="450" r="5" style="fill:black;"/>
<circle cx="1250" cy="450" r="5" style="fill:black;"/>
<circle cx="1350" cy="450" r="5" style="fill:black;"/>
<circle cx="1450" cy="450" r="5" style="fill:black;"/>
<circle cx="50" cy="550" r="5" style="fill:black;"/>
<circle cx="150" cy="550" r="5" style="fill:black;"/>
<circle cx="250" cy="550" r="5" style="fill:black;"/>
<circle cx="350" cy="550" r="5" style="fill:black;"/>
<circle cx="450" cy="550" r="5" style="fill:black;"/>
<circle cx="550" cy="550" r="5" style="fill:black;"/>
<circle cx="650" cy="550" r="5" style="fill:black;"/>
<circle cx="750" cy="550" r="5" style="fill:black;"/>
<circle cx="850" cy="550" r="5" style="fill:black;"/>
<circle cx="950" cy="550" r="5" style="fill:black;"/>
<circle cx="1050" cy="550" r="5" style="fill:black;"/>
<circle cx="1150" cy="550" r="5" style="fill:black;"/>
<circle cx="1250" cy="550" r="5" style="fill:black;"/>
<circle cx="1350" cy="550" r="5" style="fill:black;"/>
<circle cx="1450" cy="550" r="5" style="fill:black;"/>
<circle cx="50" cy="650" r="5" style="fill:black;"/>
<circle cx="150" cy="650" r="5" style="fill:black;"/>
<circle cx="250" cy="650" r="5" style="fill:black;"/>
<circle cx="350" cy="650" r="5" style="fill:black;"/>
<circle cx="450" cy="650" r="5" style="fill:black;"/>
<circle cx="550" cy="650" r="5" style="fill:black;"/>
<circle cx="650" cy="650" r="5" style="fill:black;"/>
<circle cx="750" cy="650" r="5" style="fill:black;"/>
<circle cx="850" cy="650" r="5" style="fill:black;"/>
<circle cx="950" cy="650" r="5" style="fill:black;"/>
<circle cx="1050" cy="650" r="5" style="fill:black;"/>
<circle cx="1150" cy="650" r="5" style="fill:black;"/>
<circle cx="1250" cy="650" r="5" style="fill:black;"/>
<circle cx="1350" cy="650" r="5" style="fill:black;"/>
<circle cx="1450" cy="650" r="5" style="fill:black;"/>
<circle cx="50" cy="750" r="5" style="fill:black;"/>
<circle cx="150" cy="750" r="5" style="fill:black;"/>
<circle cx="250" cy="750" r="5" style="fill:black;"/>
<circle cx="350" cy="750" r="5" style="fill:black;"/>
<circle cx="450" cy="750" r="5" style="fill:black;"/>
<circle cx="550" cy="750" r="5" style="fill:black;"/>
<circle cx="650" cy="750" r="5" style="fill:black;"/>
<circle cx="750" cy="750" r="5" style="fill:black;"/>
<circle cx="850" cy="750" r="5" style="fill:black;"/>
<circle cx="950" cy="750" r="5" style="fill:black;"/>
<circle cx="1050" cy="750" r="5" style="fill:black;"/>
<circle cx="1150" cy="750" r="5" style="fill:black;"/>
<circle cx="1250" cy="750" r="5" style="fill:black;"/>
<circle cx="1350" cy="750" r="5" style="fill:black;"/>
<circle cx="1450" cy="750" r="5" style="fill:black;"/>
<circle cx="50" cy="850" r="5" style="fill:black;"/>
<circle cx="150" cy="850" r="5" style="fill:black;"/>
<circle cx="250" cy="850" r="5" style="fill:black;"/>
<circle cx="350" cy="850" r="5" style="fill:black;"/>
<circle cx="450" cy="850" r="5" style="fill:black;"/>
<circle cx="550" cy="850" r="5" style="fill:black;"/>
<circle cx="650" cy="850" r="5" style="fill:black;"/>
<circle cx="750" cy="850" r="5" style="fill:black;"/>
<circle cx="850" cy="850" r="5" style="fill:black;"/>
<circle cx="950" cy="850" r="5" style="fill:black;"/>
<circle cx="1050" cy="850" r="5" style="fill:black;"/>
<circle cx="1150" cy="850" r="5" style="fill:black;"/>
<circle cx="1250" cy="850" r="5" style="fill:black;"/>
<circle cx="1350" cy="850" r="5" style="fill:black;"/>
<circle cx="1450" cy="850" r="5" style="fill:black;"/>
<circle cx="50" cy="950" r="5" style="fill:black;"/>
<circle cx="150" cy="950" r="5" style="fill:black;"/>
<circle cx="250" cy="950" r="5" style="fill:black;"/>
<circle cx="350" cy="950" r="5" style="fill:black;"/>
<circle cx="450" cy="950" r="5" style="fill:black;"/>
<circle cx="550" cy="950" r="5" style="fill:black;"/>
<circle cx="650" cy="950" r="5" style="fill:black;"/>
<circle cx="750" cy="950" r="5" style="fill:black;"/>
<circle cx="850" cy="950" r="5" style="fill:black;"/>
<circle cx="950" cy="950" r="5" style="fill:black;"/>
<circle cx="1050" cy="950" r="5" style="fill:black;"/>
<circle cx="1150" cy="950" r="5" style="fill:black;"/>
<circle cx="1250" cy="950" r="5" style="fill:black;"/>
<circle cx="1350" cy="950" r="5" style="fill:black;"/>
<circle cx="1450" cy="950" r="5" style="fill:black;"/>

<circle cx="100" cy="100" r="6" style="fill:black;"/>
<circle cx="200" cy="100" r="6" style="fill:black;"/>
<circle cx="300" cy="100" r="6" style="fill:black;"/>
<circle cx="400" cy="100" r="6" style="fill:black;"/>
<circle cx="500" cy="100" r="6" style="fill:black;"/>
<circle cx="600" cy="100" r="6" style="fill:black;"/>
<circle cx="700" cy="100" r="6" style="fill:black;"/>
<circle cx="800" cy="100" r="6" style="fill:black;"/>
<circle cx="900" cy="100" r="6" style="fill:black;"/>
<circle cx="1000" cy="100" r="6" style="fill:black;"/>
<circle cx="1100" cy="100" r="6" style="fill:black;"/>
<circle cx="1200" cy="100" r="6" style="fill:black;"/>
<circle cx="1300" cy="100" r="6" style="fill:black;"/>
<circle cx="1400" cy="100" r="6" style="fill:black;"/>
<circle cx="100" cy="200" r="6" style="fill:black;"/>
<circle cx="200" cy="200" r="6" style="fill:black;"/>
<circle cx="300" cy="200" r="6" style="fill:black;"/>
<circle cx="400" cy="200" r="6" style="fill:black;"/>
<circle cx="500" cy="200" r="6" style="fill:black;"/>
<circle cx="600" cy="200" r="6" style="fill:black;"/>
<circle cx="700" cy="200" r="6" style="fill:black;"/>
<circle cx="800" cy="200" r="6" style="fill:black;"/>
<circle cx="900" cy="200" r="6" style="fill:black;"/>
<circle cx="1000" cy="200" r="6" style="fill:black;"/>
<circle cx="1100" cy="200" r="6" style="fill:black;"/>
<circle cx="1200" cy="200" r="6" style="fill:black;"/>
<circle cx="1300" cy="200" r="6" style="fill:black;"/>
<circle cx="1400" cy="200" r="6" style="fill:black;"/>
<circle cx="100" cy="300" r="6" style="fill:black;"/>
<circle cx="200" cy="300" r="6" style="fill:black;"/>
<circle cx="300" cy="300" r="6" style="fill:black;"/>
<circle cx="400" cy="300" r="6" style="fill:black;"/>
<circle cx="500" cy="300" r="6" style="fill:black;"/>
<circle cx="600" cy="300" r="6" style="fill:black;"/>
<circle cx="700" cy="300" r="6" style="fill:black;"/>
<circle cx="800" cy="300" r="6" style="fill:black;"/>
<circle cx="900" cy="300" r="6" style="fill:black;"/>
<circle cx="1000" cy="300" r="6" style="fill:black;"/>
<circle cx="1100" cy="300" r="6" style="fill:black;"/>
<circle cx="1200" cy="300" r="6" style="fill:black;"/>
<circle cx="1300" cy="300" r="6" style="fill:black;"/>
<circle cx="1400" cy="300" r="6" style="fill:black;"/>
<circle cx="100" cy="400" r="6" style="fill:black;"/>
<circle cx="200" cy="400" r="6" style="fill:black;"/>
<circle cx="300" cy="400" r="6" style="fill:black;"/>
<circle cx="400" cy="400" r="6" style="fill:black;"/>
<circle cx="500" cy="400" r="6" style="fill:black;"/>
<circle cx="600" cy="400" r="6" style="fill:black;"/>
<circle cx="700" cy="400" r="6" style="fill:black;"/>
<circle cx="800" cy="400" r="6" style="fill:black;"/>
<circle cx="900" cy="400" r="6" style="fill:black;"/>
<circle cx="1000" cy="400" r="6" style="fill:black;"/>
<circle cx="1100" cy="400" r="6" style="fill:black;"/>
<circle cx="1200" cy="400" r="6" style="fill:black;"/>
<circle cx="1300" cy="400" r="6" style="fill:black;"/>
<circle cx="1400" cy="400" r="6" style="fill:black;"/>
<circle cx="100" cy="500" r="6" style="fill:black;"/>
<circle cx="200" cy="500" r="6" style="fill:black;"/>
<circle cx="300" cy="500" r="6" style="fill:black;"/>
<circle cx="400" cy="500" r="6" style="fill:black;"/>
<circle cx="500" cy="500" r="6" style="fill:black;"/>
<circle cx="600" cy="500" r="6" style="fill:black;"/>
<circle cx="700" cy="500" r="6" style="fill:black;"/>
<circle cx="800" cy="500" r="6" style="fill:black;"/>
<circle cx="900" cy="500" r="6" style="fill:black;"/>
<circle cx="1000" cy="500" r="6" style="fill:black;"/>
<circle cx="1100" cy="500" r="6" style="fill:black;"/>
<circle cx="1200" cy="500" r="6" style="fill:black;"/>
<circle cx="1300" cy="500" r="6" style="fill:black;"/>
<circle cx="1400" cy="500" r="6" style="fill:black;"/>
<circle cx="100" cy="600" r="6" style="fill:black;"/>
<circle cx="200" cy="600" r="6" style="fill:black;"/>
<circle cx="300" cy="600" r="6" style="fill:black;"/>
<circle cx="400" cy="600" r="6" style="fill:black;"/>
<circle cx="500" cy="600" r="6" style="fill:black;"/>
<circle cx="600" cy="600" r="6" style="fill:black;"/>
<circle cx="700" cy="600" r="6" style="fill:black;"/>
<circle cx="800" cy="600" r="6" style="fill:black;"/>
<circle cx="900" cy="600" r="6" style="fill:black;"/>
<circle cx="1000" cy="600" r="6" style="fill:black;"/>
<circle cx="1100" cy="600" r="6" style="fill:black;"/>
<circle cx="1200" cy="600" r="6" style="fill:black;"/>
<circle cx="1300" cy="600" r="6" style="fill:black;"/>
<circle cx="1400" cy="600" r="6" style="fill:black;"/>
<circle cx="100" cy="700" r="6" style="fill:black;"/>
<circle cx="200" cy="700" r="6" style="fill:black;"/>
<circle cx="300" cy="700" r="6" style="fill:black;"/>
<circle cx="400" cy="700" r="6" style="fill:black;"/>
<circle cx="500" cy="700" r="6" style="fill:black;"/>
<circle cx="600" cy="700" r="6" style="fill:black;"/>
<circle cx="700" cy="700" r="6" style="fill:black;"/>
<circle cx="800" cy="700" r="6" style="fill:black;"/>
<circle cx="900" cy="700" r="6" style="fill:black;"/>
<circle cx="1000" cy="700" r="6" style="fill:black;"/>
<circle cx="1100" cy="700" r="6" style="fill:black;"/>
<circle cx="1200" cy="700" r="6" style="fill:black;"/>
<circle cx="1300" cy="700" r="6" style="fill:black;"/>
<circle cx="1400" cy="700" r="6" style="fill:black;"/>
<circle cx="100" cy="800" r="6" style="fill:black;"/>
<circle cx="200" cy="800" r="6" style="fill:black;"/>
<circle cx="300" cy="800" r="6" style="fill:black;"/>
<circle cx="400" cy="800" r="6" style="fill:black;"/>
<circle cx="500" cy="800" r="6" style="fill:black;"/>
<circle cx="600" cy="800" r="6" style="fill:black;"/>
<circle cx="700" cy="800" r="6" style="fill:black;"/>
<circle cx="800" cy="800" r="6" style="fill:black;"/>
<circle cx="900" cy="800" r="6" style="fill:black;"/>
<circle cx="1000" cy="800" r="6" style="fill:black;"/>
<circle cx="1100" cy="800" r="6" style="fill:black;"/>
<circle cx="1200" cy="800" r="6" style="fill:black;"/>
<circle cx="1300" cy="800" r="6" style="fill:black;"/>
<circle cx="1400" cy="800" r="6" style="fill:black;"/>
<circle cx="100" cy="900" r="6" style="fill:black;"/>
<circle cx="200" cy="900" r="6" style="fill:black;"/>
<circle cx="300" cy="900" r="6" style="fill:black;"/>
<circle cx="400" cy="900" r="6" style="fill:black;"/>
<circle cx="500" cy="900" r="6" style="fill:black;"/>
<circle cx="600" cy="900" r="6" style="fill:black;"/>
<circle cx="700" cy="900" r="6" style="fill:black;"/>
<circle cx="800" cy="900" r="6" style="fill:black;"/>
<circle cx="900" cy="900" r="6" style="fill:black;"/>
<circle cx="1000" cy="900" r="6" style="fill:black;"/>
<circle cx="1100" cy="900" r="6" style="fill:black;"/>
<circle cx="1200" cy="900" r="6" style="fill:black;"/>
<circle cx="1300" cy="900" r="6" style="fill:black;"/>
<circle cx="1400" cy="900" r="6" style="fill:black;"/>
</svg>
